<?xml version="1.0" encoding="utf-8"?>
<!-- Generator: Adobe Illustrator 22.1.0, SVG Export Plug-In . SVG Version: 6.00 Build 0)  -->
<!DOCTYPE svg PUBLIC "-//W3C//DTD SVG 1.1//EN" "http://www.w3.org/Graphics/SVG/1.1/DTD/svg11.dtd">
<svg version="1.1" id="Calque_1" xmlns="http://www.w3.org/2000/svg" xmlns:xlink="http://www.w3.org/1999/xlink" x="0px" y="0px"
	 viewBox="0 0 348 405" style="enable-background:new 0 0 348 405;" xml:space="preserve">
<style type="text/css">
	.st0{fill:#C17A0A;}
	.st1{opacity:0.72;}
	.st2{fill:#FFFFFF;}
	.st3{fill:#F7A813;}
	.st4{fill:none;stroke:#C17A0A;stroke-width:4;stroke-linecap:round;stroke-linejoin:round;stroke-miterlimit:10;}
	.st5{fill:#FFFFFF;stroke:#020203;stroke-width:3.2;stroke-linecap:round;stroke-linejoin:round;stroke-miterlimit:10;}
	.st6{fill:none;stroke:#020203;stroke-width:3.6495;stroke-linecap:round;stroke-linejoin:round;stroke-miterlimit:10;}
	.st7{fill:#020203;}
	.st8{fill:none;stroke:#020203;stroke-width:3.2;stroke-linecap:round;stroke-linejoin:round;stroke-miterlimit:10;}
</style>
<circle class="st0" cx="177.1" cy="163.9" r="129"/>
<g class="st1">
	
		<image style="overflow:visible;enable-background:new    ;" width="1000" height="1258" xlink:href="13E5984CEF86CADA.png"  transform="matrix(0.2391 0 0 0.2391 16.7421 10.651)">
	</image>
</g>
<path class="st2" d="M137.1,204.7c-12.1,7.1-25.4,33.3-28,47.1c0,0,43.7,55,131.4,5.8c9.6-5.4-6.9-44.5-18.2-52.3"/>
<path class="st3" d="M176.4,12.5C93.1,12.5,25.6,80,25.6,163.3s67.5,150.8,150.8,150.8s150.8-67.5,150.8-150.8
	C327.2,80,259.7,12.5,176.4,12.5z M176.4,271c-59.5,0-107.7-48.2-107.7-107.7S116.9,55.6,176.4,55.6s107.7,48.2,107.7,107.7
	C284.1,222.8,235.9,271,176.4,271z"/>
<g>
	<line class="st4" x1="176.4" y1="21.9" x2="176.4" y2="45.4"/>
	<line class="st4" x1="176.4" y1="281.5" x2="176.4" y2="305"/>
	<line class="st4" x1="34.9" y1="163.4" x2="58.3" y2="163.4"/>
	<line class="st4" x1="294.5" y1="163.4" x2="318" y2="163.4"/>
	<line class="st4" x1="76.3" y1="263.5" x2="92.9" y2="246.9"/>
	<line class="st4" x1="259.9" y1="79.9" x2="276.5" y2="63.3"/>
	<line class="st4" x1="76.3" y1="63.3" x2="92.9" y2="79.9"/>
	<line class="st4" x1="259.9" y1="246.9" x2="276.5" y2="263.5"/>
	<line class="st4" x1="53.8" y1="234.2" x2="74.2" y2="222.5"/>
	<line class="st4" x1="278.7" y1="104.4" x2="299" y2="92.6"/>
	<line class="st4" x1="105.6" y1="40.8" x2="117.4" y2="61.2"/>
	<line class="st4" x1="235.4" y1="265.7" x2="247.2" y2="286"/>
	<line class="st4" x1="247.2" y1="40.8" x2="235.4" y2="61.2"/>
	<line class="st4" x1="117.4" y1="265.7" x2="105.6" y2="286"/>
	<line class="st4" x1="299" y1="234.2" x2="278.7" y2="222.5"/>
	<line class="st4" x1="74.2" y1="104.4" x2="53.8" y2="92.6"/>
	<line class="st4" x1="214.6" y1="27.1" x2="208.3" y2="49.7"/>
	<line class="st4" x1="144.5" y1="277.1" x2="138.2" y2="299.7"/>
	<line class="st4" x1="138.2" y1="27.1" x2="144.5" y2="49.7"/>
	<line class="st4" x1="208.3" y1="277.1" x2="214.6" y2="299.7"/>
	<line class="st4" x1="39.5" y1="199.4" x2="62.2" y2="193.4"/>
	<line class="st4" x1="290.6" y1="133.4" x2="313.3" y2="127.4"/>
	<line class="st4" x1="313.3" y1="199.4" x2="290.6" y2="193.4"/>
	<line class="st4" x1="62.2" y1="133.4" x2="39.5" y2="127.4"/>
</g>
<path class="st5" d="M237.5,225.3c12.1,3,49.3,2.8,67-28.6l-6.9-6.7c-18.2,31.3-55,27.3-67.1,24.3"/>
<path d="M303.5,185.1c1,0.7,1.3,2.1,1,3.3c1-0.5,2.4-0.9,3.4-0.4s1.4,1.5,1.3,2.8c-0.1,0.9-2.9,6.8-3.3,6.6
	c-3.5-1.4-7.2-5.3-9.7-8.2C296.2,189.3,300.4,183,303.5,185.1z"/>
<path class="st5" d="M118.2,225.3c-12.1,3-49.3,2.8-67-28.6l6.9-6.7c18.2,31.3,55,27.3,67.1,24.3"/>
<path d="M52.2,185.1c-1,0.7-1.3,2.1-1,3.3c-1-0.5-2.4-0.9-3.4-0.4s-1.4,1.5-1.3,2.8c0.1,0.9,2.9,6.8,3.3,6.6
	c3.5-1.4,7.2-5.3,9.7-8.2C59.5,189.3,55.3,183,52.2,185.1z"/>
<path class="st6" d="M244,247.4c-4.5-16-10.5-32.6-21.7-42.1"/>
<path class="st6" d="M137.1,204.7c-12.1,7.1-24.4,31.2-27.4,43.7"/>
<path class="st5" d="M220.9,155.9c-13.5-15.2-5.7-48.9-10.4-53.7c-10.2-10.3-39.6-8.4-47.8-6.5s-13.9,4.9-19.7,14.9
	c-2.6,4.5,4.4,28.7-9,44.7"/>
<g>
	<path class="st7" d="M144.9,104.9c-1.6-3.3-3-6.7-3-10.4c0-3.6,1.6-7.5,4.8-9.2c1.3-0.7,3-1,4.3-0.1c1.6,1.1,1.5,3.5,1.9,5.5
		c0.4,2.3,1.7,4.4,3.5,5.8"/>
	<g>
		<path class="st7" d="M147.3,103.5c-1.3-2.8-2.7-5.9-2.6-9c0-1.9,1.2-7,3.9-7c1.8,0,1.9,4.8,2.5,6.1c0.8,1.9,2,3.5,3.5,4.8
			c2.6,2.3,6.5-1.5,3.9-3.9c-3.4-3-2-7.4-4.8-10.6c-2.5-2.9-6.7-2.2-9.4-0.2c-7.5,5.5-5,15.5-1.6,22.5
			C144.1,109.5,148.8,106.7,147.3,103.5L147.3,103.5z"/>
	</g>
</g>
<g>
	<path class="st7" d="M199.9,95.5c2.9-1.9,4.5-4.6,4.9-8c0.2-1.8,0.2-3.8,1.5-5c1.2-1,2.9-0.9,4.3-0.3c3.8,1.4,6.3,5.4,6.5,9.4
		s-1.7,8-4.6,10.8"/>
	<g>
		<path class="st7" d="M201.3,97.9c1.9-1.3,3.5-2.8,4.6-4.9c0.5-1,1-2.1,1.2-3.1c0.3-0.9,0.1-2.6,0.6-3.4c2.7-5.1,6.7,3.3,6.8,5.2
			c0.3,3.4-1.5,6.5-3.8,8.8c-2.5,2.5,1.4,6.4,3.9,3.9c6.2-6.3,7.9-17.1,0-23c-2.8-2.1-7.2-3.3-10.1-0.7c-1.4,1.2-1.8,3-2.1,4.7
			c-0.5,3.3-1,5.7-3.8,7.8C195.7,95.2,198.4,99.9,201.3,97.9L201.3,97.9z"/>
	</g>
</g>
<ellipse transform="matrix(0.9997 -2.615270e-02 2.615270e-02 0.9997 -3.1754 4.4704)" class="st7" cx="169.3" cy="123.6" rx="6.5" ry="7.3"/>
<path class="st5" d="M212.2,105.5c12-6.1,21.4-9.1,34.5-6.2c-5.2,13.3-19.1,17.6-33.5,12.6"/>
<path class="st5" d="M142.2,112.8c-13.7,1.9-24.1-1.1-34-10.1c13.8-6.5,26.4-7.6,36.3,3.9"/>
<path class="st8" d="M121.2,104.5c10,1.3,12.7,3.1,21.7,6"/>
<path class="st8" d="M232.2,105.6c-4.6,2.3-11.8,4.4-19.4,3.2"/>
<ellipse transform="matrix(0.9997 -2.615270e-02 2.615270e-02 0.9997 -3.172 4.936)" class="st7" cx="187.1" cy="123.7" rx="6.5" ry="7.3"/>
<path class="st5" d="M119.3,187.7c8.2,17.7,33.2,22.3,52.6,23.8c43.4,3.4,64.7-11.4,66.1-26.7c1.7-18.6-15.3-27.7-20.9-30.1
	c-21.5-9.3-46.4-9.9-73-2.9C144.1,151.9,106.4,160,119.3,187.7z"/>
<g>
	<g>
		<path class="st7" d="M160.5,172.3c2.1-0.7,4.2-0.9,6.4-0.7c2,0.2,3.9,0.4,5.7-0.8c3.1-2,2.8-6,0.1-8.2c-5.9-5-14.7-0.3-16.3,6.4
			c-0.8,3.5,4.5,5,5.4,1.5c0.4-1.6,1.2-3,2.7-3.8c0.7-0.4,1.5-0.5,2.3-0.5c0.7,0,1.7,0.6,2.3,0.6c-0.1-0.2-0.1-0.3-0.2-0.5
			c-0.7,0-1.3-0.1-2-0.2c-0.9-0.1-1.8-0.1-2.7-0.1c-1.8,0.1-3.5,0.4-5.2,1C155.6,168,157.1,173.3,160.5,172.3L160.5,172.3z"/>
	</g>
</g>
<g>
	<g>
		<path class="st7" d="M198.3,166.9c-1.7-0.5-3.4-0.9-5.2-1c-0.9-0.1-1.8,0-2.7,0.1c-0.5,0.1-1,0.1-1.5,0.1
			c-0.5-0.1-0.7,0.1-0.7,0.5c0.3,0.1,1.8-0.6,2.3-0.6c0.8,0,1.6,0.2,2.3,0.5c1.5,0.8,2.3,2.2,2.7,3.8c0.8,3.5,6.2,2,5.4-1.5
			c-1.6-6.8-10.4-11.4-16.3-6.4c-2.6,2.2-2.9,6.2,0.1,8.2c1.8,1.2,3.7,1,5.7,0.8c2.2-0.2,4.3,0,6.4,0.7
			C200.3,173.3,201.7,168,198.3,166.9L198.3,166.9z"/>
	</g>
</g>
<path class="st8" d="M171.4,198.7c17.9,5.2,38.2,1.2,46.3-10.6"/>
<g>
	<path class="st3" d="M31.4,377.3c-0.1,0.1-3.3,2.3-9.5,6.8c-3.6,2.6-6.8,4.5-9.6,5.8c-0.3,0.2-0.6,0.2-1,0.2
		c-0.8,0-1.5-0.5-2.1-1.5c-1-1.3-1.5-2-1.5-2c-0.1-4.8,0.2-11.4,0.9-19.9c0.8-9,1.2-15.5,1.2-19.6c0-2.8-0.1-5.4-0.3-7.8
		c0.7-0.7,1.6-1.1,2.7-1.1c2.1,0,3.2,0.8,3.6,2.3c0.2,4.4,0,11.1-0.6,19.9c-0.5,8.8-0.8,15.5-0.6,19.9c1.5-0.6,3.5-1.8,5.9-3.4
		c2.6-1.8,4.6-3.1,5.8-3.6c0.3,0,0.7-0.1,1.4-0.2c0.7-0.1,1.2-0.2,1.5-0.2c1.1,0,1.9,0.4,2.3,1.3C32,375.5,32,376.5,31.4,377.3z"/>
	<path class="st3" d="M64.9,382.8c0.3,0.9,0.5,1.6,0.5,2.3c0,1.1-0.5,2-1.4,2.8s-1.5,1.2-1.9,1.1c-2.6-0.5-4.3-2.6-5-6.4
		c-0.8-4.1-1.6-7.5-2.7-10.3c-1.8,0.2-3.7,0.3-5.5,0.5c-2.1,0.3-3.8,0.9-4.9,1.9c-0.6,1.7-1.4,4.6-2.3,8.9c-0.9,3.9-1.8,6.9-2.7,9
		c-0.4,1-1.4,1.2-2.8,0.8c-1.8-0.6-2.7-1.4-2.8-2.4c-0.2-2.1,0.4-4.8,1.8-8.3c1.6-3.9,2.5-6.8,2.7-8.4c0.1-0.5-0.3-1-1.1-1.6
		c-0.8-0.6-1.1-1.1-1.1-1.4s0.1-0.6,0.4-0.9s0.8-0.5,1.7-0.7c0.9-0.2,1.4-0.5,1.5-0.9c1-2.7,2.5-7.7,4.6-15.1
		c1.8-6.4,3.4-11.3,4.8-14.7c0.3-0.8,1-1.1,2-1.1c0.8,0,1.4,0.2,2,0.7c1.5,1.3,2.5,3.2,2.9,5.8c0.3,2.2,0.6,4.4,0.9,6.6
		C59.2,364,62,374.6,64.9,382.8z M53.1,367.3c-0.2-2-0.5-4.2-1.1-6.7c-0.5-2.2-1.1-4.3-1.5-6.5c-1.6,4.5-3,9-4.2,13.4
		C47.1,367.4,49.4,367.3,53.1,367.3z"/>
	<path class="st3" d="M114.2,337.9c0,1.5-1,2.4-2.9,2.8c-2.5,0.5-4.1,1.1-4.7,1.7c-6,6.4-9.1,14.6-9.1,24.7c0,4.8,0.8,9.2,2.3,13.4
		c1.2,3.5,2.1,5.7,2.7,6.8c1.3,2.6,3,4.5,4.9,5.7c0.8,0.4,1.6,0.7,2.4,1.1c0.9,0.5,1.3,1.2,1.3,2c0,0.9-0.3,1.6-0.9,2.3
		c-0.6,0.7-1.2,1-1.8,0.8c-0.7-0.1-1.8-0.5-3.2-1.1c-2.6-1.5-5.4-4.7-8.4-9.6c-0.8-1.2-1.5-2.5-2.3-3.8s-1.4-2.6-1.7-3.8
		c-0.3-0.9-0.7-4.3-1.4-10.4c-0.2-1.9-0.3-3.7-0.3-5.5c0-9.6,2.8-17.7,8.3-24.4c3.2-3.9,6.6-5.8,10.1-5.8c1.5,0,2.9,0.5,4.1,1.4
		C114,336.3,114.2,336.9,114.2,337.9z"/>
	<path class="st3" d="M142.6,369.2c-3.2,7.2-7.7,11.4-13.5,12.8c-0.7,0.2-1.4,0.2-2.1,0.2c-3.1,0-6.2-1.7-9.3-5
		c-2.1-2.3-3.2-5.2-3.2-8.8c0-4,1.2-8.3,3.6-12.9c1-1.9,2.3-3.6,3.7-5c1.7-1.7,3.3-2.5,4.8-2.5c0.9,0,1.7,0.3,2.4,1
		c0.8,0.6,2.8,1.5,6.1,2.6c2.6,0.9,4.4,2.3,5.5,4.4c1.9,3.6,2.8,6.7,2.8,9.3C143.4,366.7,143.1,368,142.6,369.2z M136.1,364.2
		c-0.4-3.9-1.4-6.3-3.2-7c-0.3-0.1-0.5-0.2-0.7-0.2c-0.6,0-1.5,0.5-2.4,1.6c-1.1,1.2-1.9,2-2.5,2.2c-0.4,0.2-0.9,0-1.6-0.5
		s-1.2-0.7-1.4-0.7c-0.2,0-0.3,0.1-0.4,0.2c-1.9,1.6-2.8,4.1-2.8,7.5c0,2.3,0.5,4.3,1.6,5.9c1.5,2.2,2.8,3.3,3.8,3.3
		c2.4,0,4.7-1.5,6.9-4.5C135.4,369.2,136.4,366.6,136.1,364.2z"/>
	<path class="st3" d="M188.1,388.1c0.2,1.1-0.6,1.7-2.3,1.8c-1.2,0.1-2.4-0.5-3.6-1.5c-1-0.9-1.8-2.4-2.4-4.5c-0.5-1.9-0.9-4.6-1-8
		c-0.1-3.9-0.3-6.6-0.6-8c-0.7,2.4-1.9,6-3.5,10.9c-1,2.6-1.6,4.2-1.8,4.5c-0.9,1.7-1.9,2.4-3.2,2.3c-2.6-0.6-4.6-2.1-6-4.4
		c-0.9-1.5-1.8-3.9-2.6-7.2c-0.9-3.6-1.6-6-2.2-7.3c-2.3,11.3-4.8,19.7-7.5,25.3c-0.4,0.8-1.5,0.8-3.4-0.2c-1.6-0.8-2.3-1.8-2.3-3.2
		c0-0.5,0.6-2.2,1.7-5.2c0.5-1.3,2.4-7.5,5.7-18.7c1.1-3.9,2.3-10.7,3.6-20.5c0.1-0.1,0.4-0.7,0.8-1.7c0.3-0.8,0.8-1.1,1.5-1.1
		c1.8,0,3.1,0.4,3.8,1.1c0,1.6,0.3,4.1,0.8,7.6s0.8,6.1,0.8,7.9c0.5,3,0.9,6.1,1.4,9.2c0.6,3.5,1.7,6.3,3.2,8.5
		c5.2-14.4,8.5-25.8,9.9-34.2c0.2-0.9,1-1.3,2.4-1.3c2,0,3.1,0.6,3.4,1.9c0.4,1.9,0.6,4.2,0.6,6.7c0,0.8-0.1,2.6-0.2,5.3
		c-0.1,2.2-0.1,4,0,5.4C185.4,370.8,186.5,380.4,188.1,388.1z"/>
	<path class="st3" d="M234,388.1c0.2,1.1-0.6,1.7-2.3,1.8c-1.2,0.1-2.4-0.5-3.6-1.5c-1-0.9-1.8-2.4-2.4-4.5c-0.5-1.9-0.9-4.6-1-8
		c-0.1-3.9-0.3-6.6-0.6-8c-0.7,2.4-1.9,6-3.5,10.9c-1,2.6-1.6,4.2-1.8,4.5c-0.9,1.7-1.9,2.4-3.2,2.3c-2.6-0.6-4.6-2.1-6-4.4
		c-0.9-1.5-1.8-3.9-2.6-7.2c-0.9-3.6-1.6-6-2.2-7.3c-2.3,11.3-4.8,19.7-7.5,25.3c-0.4,0.8-1.5,0.8-3.4-0.2c-1.6-0.8-2.3-1.8-2.3-3.2
		c0-0.5,0.6-2.2,1.7-5.2c0.5-1.3,2.4-7.5,5.7-18.7c1.1-3.9,2.3-10.7,3.6-20.5c0.1-0.1,0.4-0.7,0.8-1.7c0.3-0.8,0.8-1.1,1.5-1.1
		c1.8,0,3.1,0.4,3.8,1.1c0,1.6,0.3,4.1,0.8,7.6s0.8,6.1,0.8,7.9c0.5,3,0.9,6.1,1.4,9.2c0.6,3.5,1.7,6.3,3.2,8.5
		c5.2-14.4,8.5-25.8,9.9-34.2c0.2-0.9,1-1.3,2.4-1.3c2,0,3.1,0.6,3.4,1.9c0.4,1.9,0.6,4.2,0.6,6.7c0,0.8-0.1,2.6-0.2,5.3
		c-0.1,2.2-0.1,4,0,5.4C231.3,370.8,232.4,380.4,234,388.1z"/>
	<path class="st3" d="M269.2,342.6c-0.4,3.8-1.5,8.8-3.2,15.1c-2.4,8.5-3.8,13.6-4.2,15.4c-1.2,5.5-3.5,10.4-6.8,14.9
		c-2.1,2.9-4.5,4.3-7.3,4.2c-2.4-0.1-4.2-1.6-5.4-4.6c-2.1-5.1-3.1-11-3.1-17.9c0-3.9,0.4-9,1.1-15.2c-0.1,0.5-0.1-1.1-0.1-5
		c0-3.3,1.3-5,3.9-5c0.5,0,1.1,0.1,1.7,0.4s1.2,0.6,1.8,0.9c0.1,2.8,0,6.8-0.2,12.2c-0.3,5.7-0.4,9.9-0.4,12.4
		c0,2.7,0.1,5.2,0.2,7.4c0.1,1.1,0.6,3.3,1.5,6.5c2.3-2.5,4.1-5.9,5.3-10.1c0.4-1.4,1.3-5.2,2.6-11.5c1-4.8,2.2-8.5,3.5-11.2
		c0.4-0.8,0.7-2.2,1-4.3c0.3-2.1,0.6-3.6,1-4.4c0.6-1.3,1.6-1.9,3.1-1.9C267,340.8,268.4,341.4,269.2,342.6z"/>
	<path class="st3" d="M307.9,337.6c-0.8,7.2-1.5,14.5-2.2,21.8c-0.9,8.6-1.4,15.8-1.4,21.6c0,1.9,0.1,3.8,0.2,5.6
		c0.1,0.9-0.3,1.6-0.9,2.3c-0.7,0.6-1.4,1-2.3,1c-1.7,0-3.1-1.1-4.2-3.4c-3.5-6.7-7.7-17.3-12.9-31.8c-0.1-0.3-0.2-0.5-0.4-0.5
		c-0.4,0-0.6,0.4-0.7,1.1c-0.9,7.7-1.4,15.8-1.4,24.4c0,4.1,0.1,8.3,0.3,12.6c0.1,1.6-0.4,2.6-1.4,3.2c-0.4,0.4-0.8,0.6-1.2,0.6
		s-0.9-0.2-1.5-0.5c-0.8-0.4-1.3-0.6-1.5-0.7c-0.7-0.2-1.1-0.9-1.3-1.9c-0.1-0.9-0.1-1.8-0.2-2.7c-0.2-3-0.2-6.2-0.2-9.5
		c0-5.7,0.3-12.9,1-21.5c1-13.1,1.6-20.3,1.7-21.7c0.1-1.2,1.1-1.8,3-1.8c0.9-0.1,2.3,0.6,4,2c1.7,3.3,3.9,8.6,6.4,16
		c2.4,7.1,4.6,12.4,6.6,16.1c0.8-7.2,2.1-18,3.8-32.6c0.2-1.1,0.9-1.6,2.3-1.6c0.5,0,1.1,0.1,1.7,0.2c0.9,0.2,1.4,0.4,1.5,0.4
		C307.4,336.7,307.7,337.1,307.9,337.6z"/>
	<path class="st3" d="M341.9,346.2c-2,0.8-4.9,1.8-8.8,2.8c-3.9,1.1-6.8,2-8.8,2.8c-0.5,1.4-0.8,4.5-1.1,9.4c0.9,0.3,1.9,0.5,3,0.5
		c0.8,0,2.1-0.1,3.8-0.4s3-0.4,3.8-0.4c1.5,0,2.8,0.3,3.9,1c0.8,1.1,1.1,1.8,1.1,2.1c0,0.4-0.2,0.7-0.6,0.9
		c-0.1,0.1-0.5,0.4-1.1,1.1c-0.4,0.5-1,0.7-1.6,0.6c-1.1,0.3-3.2,0.4-6.2,0.5c-2.5,0.1-4.6,0.4-6.1,1c-1,4-1.5,7.2-1.5,9.5
		c0,1.6,0.2,2.8,0.6,3.7c2.5,1.8,6.9,2.5,13.2,2.3c0.4,0,0.9-0.2,1.4-0.6s0.9-0.6,1.2-0.6c1.5-0.3,2.5,0.8,3,3.4
		c0.2,0.9,0,1.7-0.4,2.4c-0.5,0.7-1.1,1.1-2,1.2c-6.5,0.2-12.2-0.3-17-1.5c-1.5-0.4-2.9-1.2-4.1-2.5c-1.2-1.3-1.9-2.8-2.1-4.4
		c-0.5-4.7-0.5-8.9,0-12.6c-1.5-1-2.2-2-2-3c0.1-0.5,0.5-0.9,1.3-1.3s1.2-0.8,1.3-1.3c0.1-0.4,0.3-3,0.6-7.7c-3-0.6-4.5-1.7-4.5-3.4
		c0.1-1.6,1-2.8,2.8-3.7c1.7-0.7,3.5-1.4,5.2-2.1c2-1,4.5-1.9,7.5-2.8c2.6-0.7,5.3-1.4,7.9-2c0.3-0.1,0.6-0.1,1-0.1
		c1.5,0,3.2,0.6,5.1,1.7c0.1,0.2,0.2,0.6,0.4,1.2s0.3,1,0.3,1.3C342.5,345.6,342.3,345.9,341.9,346.2z"/>
</g>
</svg>
