<?xml version="1.0" encoding="utf-8"?>
<!-- Generator: Adobe Illustrator 22.1.0, SVG Export Plug-In . SVG Version: 6.00 Build 0)  -->
<!DOCTYPE svg PUBLIC "-//W3C//DTD SVG 1.1//EN" "http://www.w3.org/Graphics/SVG/1.1/DTD/svg11.dtd">
<svg version="1.1" id="Calque_1" xmlns="http://www.w3.org/2000/svg" xmlns:xlink="http://www.w3.org/1999/xlink" x="0px" y="0px"
	 viewBox="0 0 346.5 367.5" style="enable-background:new 0 0 346.5 367.5;" xml:space="preserve">
<style type="text/css">
	.st0{fill:#C17A0A;}
	.st1{opacity:0.72;}
	.st2{fill:#FFFFFF;}
	.st3{fill:#F7A813;}
	.st4{fill:none;stroke:#C17A0A;stroke-width:4;stroke-linecap:round;stroke-linejoin:round;stroke-miterlimit:10;}
	.st5{fill:#FFFFFF;stroke:#020203;stroke-width:3.2;stroke-linecap:round;stroke-linejoin:round;stroke-miterlimit:10;}
	.st6{fill:none;stroke:#020203;stroke-width:3.6495;stroke-linecap:round;stroke-linejoin:round;stroke-miterlimit:10;}
	.st7{fill:#020203;}
	.st8{fill:none;stroke:#020203;stroke-width:3.2;stroke-linecap:round;stroke-linejoin:round;stroke-miterlimit:10;}
</style>
<circle class="st0" cx="173.7" cy="181.8" r="129"/>
<g class="st1">
	
		<image style="overflow:visible;" width="995" height="1254" xlink:href="6CE50B67A27CC9CE.png"  transform="matrix(0.24 0 0 0.24 13.467 28.3723)">
	</image>
</g>
<path class="st2" d="M133.7,222.6c-12.1,7.1-25.4,33.3-28,47.1c0,0,43.7,55,131.4,5.8c9.6-5.4-6.9-44.5-18.2-52.3"/>
<path class="st3" d="M173,30.3c-83.3,0-150.8,67.5-150.8,150.8c0,83.3,67.5,150.8,150.8,150.8s150.8-67.5,150.8-150.8
	C323.8,97.9,256.3,30.3,173,30.3z M173,288.8c-59.5,0-107.7-48.2-107.7-107.7c0-59.5,48.2-107.7,107.7-107.7s107.7,48.2,107.7,107.7
	C280.7,240.6,232.5,288.8,173,288.8z"/>
<g>
	<line class="st4" x1="173" y1="39.7" x2="173" y2="63.2"/>
	<line class="st4" x1="173" y1="299.3" x2="173" y2="322.8"/>
	<line class="st4" x1="31.5" y1="181.3" x2="54.9" y2="181.3"/>
	<line class="st4" x1="291.1" y1="181.3" x2="314.5" y2="181.3"/>
	<line class="st4" x1="72.9" y1="281.4" x2="89.5" y2="264.8"/>
	<line class="st4" x1="256.5" y1="97.8" x2="273.1" y2="81.2"/>
	<line class="st4" x1="72.9" y1="81.2" x2="89.5" y2="97.8"/>
	<line class="st4" x1="256.5" y1="264.8" x2="273.1" y2="281.4"/>
	<line class="st4" x1="50.4" y1="252" x2="70.8" y2="240.3"/>
	<line class="st4" x1="275.3" y1="122.2" x2="295.6" y2="110.5"/>
	<line class="st4" x1="102.2" y1="58.7" x2="114" y2="79"/>
	<line class="st4" x1="232" y1="283.5" x2="243.8" y2="303.9"/>
	<line class="st4" x1="243.8" y1="58.7" x2="232" y2="79"/>
	<line class="st4" x1="114" y1="283.5" x2="102.2" y2="303.9"/>
	<line class="st4" x1="295.6" y1="252" x2="275.3" y2="240.3"/>
	<line class="st4" x1="70.8" y1="122.2" x2="50.4" y2="110.5"/>
	<line class="st4" x1="211.2" y1="45" x2="204.9" y2="67.6"/>
	<line class="st4" x1="141.1" y1="295" x2="134.8" y2="317.6"/>
	<line class="st4" x1="134.8" y1="45" x2="141.1" y2="67.6"/>
	<line class="st4" x1="204.9" y1="295" x2="211.2" y2="317.6"/>
	<line class="st4" x1="36.1" y1="217.3" x2="58.8" y2="211.3"/>
	<line class="st4" x1="287.2" y1="151.2" x2="309.9" y2="145.3"/>
	<line class="st4" x1="309.9" y1="217.3" x2="287.2" y2="211.3"/>
	<line class="st4" x1="58.8" y1="151.2" x2="36.1" y2="145.3"/>
</g>
<path class="st5" d="M234.1,243.2c12.1,3,49.3,2.8,67-28.6l-6.9-6.7c-18.2,31.3-55,27.3-67.1,24.3"/>
<path d="M300.1,203c1,0.7,1.3,2.1,1,3.3c1-0.5,2.4-0.9,3.4-0.4c1,0.5,1.4,1.5,1.3,2.8c-0.1,0.9-2.9,6.8-3.3,6.6
	c-3.5-1.4-7.2-5.3-9.7-8.2C292.8,207.1,297,200.8,300.1,203z"/>
<path class="st5" d="M114.8,243.2c-12.1,3-49.3,2.8-67-28.6l6.9-6.7c18.2,31.3,55,27.3,67.1,24.3"/>
<path d="M48.8,203c-1,0.7-1.3,2.1-1,3.3c-1-0.5-2.4-0.9-3.4-0.4c-1,0.5-1.4,1.5-1.3,2.8c0.1,0.9,2.9,6.8,3.3,6.6
	c3.5-1.4,7.2-5.3,9.7-8.2C56.1,207.1,51.9,200.8,48.8,203z"/>
<path class="st6" d="M240.6,265.3c-4.5-16-10.5-32.6-21.7-42.1"/>
<path class="st6" d="M133.7,222.6c-12.1,7.1-24.4,31.2-27.4,43.7"/>
<path class="st5" d="M217.5,173.8c-13.5-15.2-5.7-48.9-10.4-53.7c-10.2-10.3-39.6-8.4-47.8-6.5s-13.9,4.9-19.7,14.9
	c-2.6,4.5,4.4,28.7-9,44.7"/>
<g>
	<path class="st7" d="M141.5,122.8c-1.6-3.3-3-6.7-3-10.4s1.6-7.5,4.8-9.2c1.3-0.7,3-1,4.3-0.1c1.6,1.1,1.5,3.5,1.9,5.5
		c0.4,2.3,1.7,4.4,3.5,5.8"/>
	<g>
		<path class="st7" d="M143.9,121.4c-1.3-2.8-2.7-5.9-2.6-9c0-1.9,1.2-7,3.9-7c1.8,0,1.9,4.8,2.5,6.1c0.8,1.9,2,3.5,3.5,4.8
			c2.6,2.3,6.5-1.5,3.9-3.9c-3.4-3-2-7.4-4.8-10.6c-2.5-2.9-6.7-2.2-9.4-0.2c-7.5,5.5-5,15.5-1.6,22.5
			C140.7,127.3,145.4,124.6,143.9,121.4L143.9,121.4z"/>
	</g>
</g>
<g>
	<path class="st7" d="M196.5,113.4c2.9-1.9,4.5-4.6,4.9-8c0.2-1.8,0.2-3.8,1.5-5c1.2-1,2.9-0.9,4.3-0.3c3.8,1.4,6.3,5.4,6.5,9.4
		c0.2,4-1.7,8-4.6,10.8"/>
	<g>
		<path class="st7" d="M197.8,115.7c1.9-1.3,3.5-2.8,4.6-4.9c0.5-1,1-2.1,1.2-3.1c0.3-0.9,0.1-2.6,0.6-3.4c2.7-5.1,6.7,3.3,6.8,5.2
			c0.3,3.4-1.5,6.5-3.8,8.8c-2.5,2.5,1.4,6.4,3.9,3.9c6.2-6.3,7.9-17.1,0-23c-2.8-2.1-7.2-3.3-10.1-0.7c-1.4,1.2-1.8,3-2.1,4.7
			c-0.5,3.3-1,5.7-3.8,7.8C192.3,113,195,117.8,197.8,115.7L197.8,115.7z"/>
	</g>
</g>
<ellipse transform="matrix(0.9997 -2.615380e-02 2.615380e-02 0.9997 -3.6431 4.3863)" class="st7" cx="165.9" cy="141.5" rx="6.5" ry="7.3"/>
<path class="st5" d="M208.8,123.4c12-6.1,21.4-9.1,34.5-6.2c-5.2,13.3-19.1,17.6-33.5,12.6"/>
<path class="st5" d="M138.8,130.7c-13.7,1.9-24.1-1.1-34-10.1c13.8-6.5,26.4-7.6,36.3,3.9"/>
<path class="st8" d="M117.8,122.4c10,1.3,12.7,3.1,21.7,6"/>
<path class="st8" d="M228.8,123.5c-4.6,2.3-11.8,4.4-19.4,3.2"/>
<ellipse transform="matrix(0.9997 -2.615380e-02 2.615380e-02 0.9997 -3.64 4.8523)" class="st7" cx="183.7" cy="141.6" rx="6.5" ry="7.3"/>
<path class="st5" d="M115.9,205.6c8.2,17.7,33.2,22.3,52.6,23.8c43.4,3.4,64.7-11.4,66.1-26.7c1.7-18.6-15.3-27.7-20.9-30.1
	c-21.5-9.3-46.4-9.9-73-2.9C140.7,169.7,103,177.8,115.9,205.6z"/>
<g>
	<g>
		<path class="st7" d="M157.1,190.1c2.1-0.7,4.2-0.9,6.4-0.7c2,0.2,3.9,0.4,5.7-0.8c3.1-2,2.8-6,0.1-8.2c-5.9-5-14.7-0.3-16.3,6.4
			c-0.8,3.5,4.5,5,5.4,1.5c0.4-1.6,1.2-3,2.7-3.8c0.7-0.4,1.5-0.5,2.3-0.5c0.7,0,1.7,0.6,2.3,0.6c-0.1-0.2-0.1-0.3-0.2-0.5
			c-0.7,0-1.3-0.1-2-0.2c-0.9-0.1-1.8-0.1-2.7-0.1c-1.8,0.1-3.5,0.4-5.2,1C152.2,185.8,153.7,191.2,157.1,190.1L157.1,190.1z"/>
	</g>
</g>
<g>
	<g>
		<path class="st7" d="M194.9,184.8c-1.7-0.5-3.4-0.9-5.2-1c-0.9-0.1-1.8,0-2.7,0.1c-0.5,0.1-1,0.1-1.5,0.1
			c-0.5-0.1-0.7,0.1-0.7,0.5c0.3,0.1,1.8-0.6,2.3-0.6c0.8,0,1.6,0.2,2.3,0.5c1.5,0.8,2.3,2.2,2.7,3.8c0.8,3.5,6.2,2,5.4-1.5
			c-1.6-6.8-10.4-11.4-16.3-6.4c-2.6,2.2-2.9,6.2,0.1,8.2c1.8,1.2,3.7,1,5.7,0.8c2.2-0.2,4.3,0,6.4,0.7
			C196.8,191.2,198.3,185.8,194.9,184.8L194.9,184.8z"/>
	</g>
</g>
<path class="st8" d="M168,216.6c17.9,5.2,38.2,1.2,46.3-10.6"/>
</svg>
