<?xml version="1.0" encoding="utf-8"?>
<!-- Generator: Adobe Illustrator 22.1.0, SVG Export Plug-In . SVG Version: 6.00 Build 0)  -->
<!DOCTYPE svg PUBLIC "-//W3C//DTD SVG 1.1//EN" "http://www.w3.org/Graphics/SVG/1.1/DTD/svg11.dtd">
<svg version="1.1" id="Calque_1" xmlns="http://www.w3.org/2000/svg" xmlns:xlink="http://www.w3.org/1999/xlink" x="0px" y="0px"
	 viewBox="0 0 406.5 114" style="enable-background:new 0 0 406.5 114;" xml:space="preserve">
<style type="text/css">
	.st0{fill:#F7A813;}
</style>
<g>
	<path class="st0" d="M68.6,66.1c-0.1,0.1-3.3,2.3-9.5,6.8c-3.6,2.6-6.8,4.5-9.6,5.8c-0.3,0.2-0.6,0.2-1,0.2c-0.8,0-1.5-0.5-2.1-1.5
		c-1-1.3-1.5-2-1.5-2C44.7,70.7,45,64,45.7,55.5c0.8-9,1.2-15.5,1.2-19.6c0-2.8-0.1-5.4-0.3-7.8c0.7-0.7,1.6-1.1,2.7-1.1
		c2.1,0,3.2,0.8,3.6,2.3c0.2,4.4,0,11.1-0.6,19.9c-0.5,8.8-0.8,15.5-0.6,19.9c1.5-0.6,3.5-1.8,5.9-3.4c2.6-1.8,4.6-3.1,5.8-3.6
		c0.3,0,0.7-0.1,1.4-0.2c0.7-0.1,1.2-0.2,1.5-0.2c1.1,0,1.9,0.4,2.3,1.3C69.2,64.3,69.2,65.3,68.6,66.1z"/>
	<path class="st0" d="M102.1,71.6c0.3,0.9,0.5,1.6,0.5,2.3c0,1.1-0.5,2-1.4,2.8c-0.9,0.8-1.5,1.2-1.9,1.1c-2.6-0.5-4.3-2.6-5-6.4
		c-0.8-4.1-1.6-7.5-2.7-10.3c-1.8,0.2-3.7,0.3-5.5,0.5c-2.1,0.3-3.8,0.9-4.9,1.9c-0.6,1.7-1.4,4.6-2.3,8.9c-0.9,3.9-1.8,6.9-2.7,9
		c-0.4,1-1.4,1.2-2.8,0.8c-1.8-0.6-2.7-1.4-2.8-2.4c-0.2-2.1,0.4-4.8,1.8-8.3c1.6-3.9,2.5-6.8,2.7-8.4c0.1-0.5-0.3-1-1.1-1.6
		c-0.8-0.6-1.1-1.1-1.1-1.4c0-0.3,0.1-0.6,0.4-0.9s0.8-0.5,1.7-0.7c0.9-0.2,1.4-0.5,1.5-0.9c1-2.7,2.5-7.7,4.6-15.1
		c1.8-6.4,3.4-11.3,4.8-14.7c0.3-0.8,1-1.1,2-1.1c0.8,0,1.4,0.2,2,0.7c1.5,1.3,2.5,3.2,2.9,5.8c0.3,2.2,0.6,4.4,0.9,6.6
		C96.4,52.8,99.2,63.3,102.1,71.6z M90.3,56.1c-0.2-2-0.5-4.2-1.1-6.7c-0.5-2.2-1.1-4.3-1.5-6.5c-1.6,4.5-3,9-4.2,13.4
		C84.3,56.2,86.6,56.1,90.3,56.1z"/>
	<path class="st0" d="M151.4,26.7c0,1.5-1,2.4-2.9,2.8c-2.5,0.5-4.1,1.1-4.7,1.7c-6,6.4-9.1,14.6-9.1,24.7c0,4.8,0.8,9.2,2.3,13.4
		c1.2,3.5,2.1,5.7,2.7,6.8c1.3,2.6,3,4.5,4.9,5.7c0.8,0.4,1.6,0.7,2.4,1.1c0.9,0.5,1.3,1.2,1.3,2c0,0.9-0.3,1.6-0.9,2.3
		c-0.6,0.7-1.2,1-1.8,0.8c-0.7-0.1-1.8-0.5-3.2-1.1c-2.6-1.5-5.4-4.7-8.4-9.6c-0.8-1.2-1.5-2.5-2.3-3.8c-0.8-1.3-1.4-2.6-1.7-3.8
		c-0.3-0.9-0.7-4.3-1.4-10.4c-0.2-1.9-0.3-3.7-0.3-5.5c0-9.6,2.8-17.7,8.3-24.4c3.2-3.9,6.6-5.8,10.1-5.8c1.5,0,2.9,0.5,4.1,1.4
		C151.2,25.1,151.4,25.7,151.4,26.7z"/>
	<path class="st0" d="M179.8,58c-3.2,7.2-7.7,11.4-13.5,12.8c-0.7,0.2-1.4,0.2-2.1,0.2c-3.1,0-6.2-1.7-9.3-5
		c-2.1-2.3-3.2-5.2-3.2-8.8c0-4,1.2-8.3,3.6-12.9c1-1.9,2.3-3.6,3.7-5c1.7-1.7,3.3-2.5,4.8-2.5c0.9,0,1.7,0.3,2.4,1
		c0.8,0.6,2.8,1.5,6.1,2.6c2.6,0.9,4.4,2.3,5.5,4.4c1.9,3.6,2.8,6.7,2.8,9.3C180.6,55.5,180.3,56.8,179.8,58z M173.3,53
		c-0.4-3.9-1.4-6.3-3.2-7c-0.3-0.1-0.5-0.2-0.7-0.2c-0.6,0-1.5,0.5-2.4,1.6c-1.1,1.2-1.9,2-2.5,2.2c-0.4,0.2-0.9,0-1.6-0.5
		c-0.7-0.5-1.2-0.7-1.4-0.7c-0.2,0-0.3,0.1-0.4,0.2c-1.9,1.6-2.8,4.1-2.8,7.5c0,2.3,0.5,4.3,1.6,5.9c1.5,2.2,2.8,3.3,3.8,3.3
		c2.4,0,4.7-1.5,6.9-4.5C172.6,58,173.6,55.4,173.3,53z"/>
	<path class="st0" d="M225.3,76.9c0.2,1.1-0.6,1.7-2.3,1.8c-1.2,0.1-2.4-0.5-3.6-1.5c-1-0.9-1.8-2.4-2.4-4.5c-0.5-1.9-0.9-4.6-1-8
		c-0.1-3.9-0.3-6.6-0.6-8c-0.7,2.4-1.9,6-3.5,10.9c-1,2.6-1.6,4.2-1.8,4.5c-0.9,1.7-1.9,2.4-3.2,2.3c-2.6-0.6-4.6-2.1-6-4.4
		c-0.9-1.5-1.8-3.9-2.6-7.2c-0.9-3.6-1.6-6-2.2-7.3c-2.3,11.3-4.8,19.7-7.5,25.3c-0.4,0.8-1.5,0.8-3.4-0.2c-1.6-0.8-2.3-1.8-2.3-3.2
		c0-0.5,0.6-2.2,1.7-5.2c0.5-1.3,2.4-7.5,5.7-18.7c1.1-3.9,2.3-10.7,3.6-20.5c0.1-0.1,0.4-0.7,0.8-1.7c0.3-0.8,0.8-1.1,1.5-1.1
		c1.8,0,3.1,0.4,3.8,1.1c0,1.6,0.3,4.1,0.8,7.6c0.5,3.5,0.8,6.1,0.8,7.9c0.5,3,0.9,6.1,1.4,9.2c0.6,3.5,1.7,6.3,3.2,8.5
		c5.2-14.4,8.5-25.8,9.9-34.2c0.2-0.9,1-1.3,2.4-1.3c2,0,3.1,0.6,3.4,1.9c0.4,1.9,0.6,4.2,0.6,6.7c0,0.8-0.1,2.6-0.2,5.3
		c-0.1,2.2-0.1,4,0,5.4C222.6,59.6,223.7,69.2,225.3,76.9z"/>
	<path class="st0" d="M271.2,76.9c0.2,1.1-0.6,1.7-2.3,1.8c-1.2,0.1-2.4-0.5-3.6-1.5c-1-0.9-1.8-2.4-2.4-4.5c-0.5-1.9-0.9-4.6-1-8
		c-0.1-3.9-0.3-6.6-0.6-8c-0.7,2.4-1.9,6-3.5,10.9c-1,2.6-1.6,4.2-1.8,4.5c-0.9,1.7-1.9,2.4-3.2,2.3c-2.6-0.6-4.6-2.1-6-4.4
		c-0.9-1.5-1.8-3.9-2.6-7.2c-0.9-3.6-1.6-6-2.2-7.3c-2.3,11.3-4.8,19.7-7.5,25.3c-0.4,0.8-1.5,0.8-3.4-0.2c-1.6-0.8-2.3-1.8-2.3-3.2
		c0-0.5,0.6-2.2,1.7-5.2c0.5-1.3,2.4-7.5,5.7-18.7c1.1-3.9,2.3-10.7,3.6-20.5c0.1-0.1,0.4-0.7,0.8-1.7c0.3-0.8,0.8-1.1,1.5-1.1
		c1.8,0,3.1,0.4,3.8,1.1c0,1.6,0.3,4.1,0.8,7.6c0.5,3.5,0.8,6.1,0.8,7.9c0.5,3,0.9,6.1,1.4,9.2c0.6,3.5,1.7,6.3,3.2,8.5
		c5.2-14.4,8.5-25.8,9.9-34.2c0.2-0.9,1-1.3,2.4-1.3c2,0,3.1,0.6,3.4,1.9c0.4,1.9,0.6,4.2,0.6,6.7c0,0.8-0.1,2.6-0.2,5.3
		c-0.1,2.2-0.1,4,0,5.4C268.5,59.6,269.6,69.2,271.2,76.9z"/>
	<path class="st0" d="M306.4,31.4c-0.4,3.8-1.5,8.8-3.2,15.1c-2.4,8.5-3.8,13.6-4.2,15.4c-1.2,5.5-3.5,10.4-6.8,14.9
		c-2.1,2.9-4.5,4.3-7.3,4.2c-2.4-0.1-4.2-1.6-5.4-4.6c-2.1-5.1-3.1-11-3.1-17.9c0-3.9,0.4-9,1.1-15.2c-0.1,0.5-0.1-1.1-0.1-5
		c0-3.3,1.3-5,3.9-5c0.5,0,1.1,0.1,1.7,0.4c0.6,0.3,1.2,0.6,1.8,0.9c0.1,2.8,0,6.8-0.2,12.2c-0.3,5.7-0.4,9.9-0.4,12.4
		c0,2.7,0.1,5.2,0.2,7.4c0.1,1.1,0.6,3.3,1.5,6.5c2.3-2.5,4.1-5.9,5.3-10.1c0.4-1.4,1.3-5.2,2.6-11.5c1-4.8,2.2-8.5,3.5-11.2
		c0.4-0.8,0.7-2.2,1-4.3c0.3-2.1,0.6-3.6,1-4.4c0.6-1.3,1.6-1.9,3.1-1.9C304.2,29.6,305.6,30.2,306.4,31.4z"/>
	<path class="st0" d="M345.1,26.4c-0.8,7.2-1.5,14.5-2.2,21.8c-0.9,8.6-1.4,15.8-1.4,21.6c0,1.9,0.1,3.8,0.2,5.6
		c0.1,0.9-0.3,1.6-0.9,2.3c-0.7,0.6-1.4,1-2.3,1c-1.7,0-3.1-1.1-4.2-3.4c-3.5-6.7-7.7-17.3-12.9-31.8c-0.1-0.3-0.2-0.5-0.4-0.5
		c-0.4,0-0.6,0.4-0.7,1.1c-0.9,7.7-1.4,15.8-1.4,24.4c0,4.1,0.1,8.3,0.3,12.6c0.1,1.6-0.4,2.6-1.4,3.2c-0.4,0.4-0.8,0.6-1.2,0.6
		c-0.4,0-0.9-0.2-1.5-0.5c-0.8-0.4-1.3-0.6-1.5-0.7c-0.7-0.2-1.1-0.9-1.3-1.9c-0.1-0.9-0.1-1.8-0.2-2.7c-0.2-3-0.2-6.2-0.2-9.5
		c0-5.7,0.3-12.9,1-21.5c1-13.1,1.6-20.3,1.7-21.7c0.1-1.2,1.1-1.8,3-1.8c0.9-0.1,2.3,0.6,4,2c1.7,3.3,3.9,8.6,6.4,16
		c2.4,7.1,4.6,12.4,6.6,16.1c0.8-7.2,2.1-18,3.8-32.6c0.2-1.1,0.9-1.6,2.3-1.6c0.5,0,1.1,0.1,1.7,0.2c0.9,0.2,1.4,0.4,1.5,0.4
		C344.6,25.5,344.9,25.9,345.1,26.4z"/>
	<path class="st0" d="M379.1,35c-2,0.8-4.9,1.8-8.8,2.8c-3.9,1.1-6.8,2-8.8,2.8c-0.5,1.4-0.8,4.5-1.1,9.4c0.9,0.3,1.9,0.5,3,0.5
		c0.8,0,2.1-0.1,3.8-0.4c1.7-0.3,3-0.4,3.8-0.4c1.5,0,2.8,0.3,3.9,1c0.8,1.1,1.1,1.8,1.1,2.1c0,0.4-0.2,0.7-0.6,0.9
		c-0.1,0.1-0.5,0.4-1.1,1.1c-0.4,0.5-1,0.7-1.6,0.6c-1.1,0.3-3.2,0.4-6.2,0.5c-2.5,0.1-4.6,0.4-6.1,1c-1,4-1.5,7.2-1.5,9.5
		c0,1.6,0.2,2.8,0.6,3.7c2.5,1.8,6.9,2.5,13.2,2.3c0.4,0,0.9-0.2,1.4-0.6c0.5-0.4,0.9-0.6,1.2-0.6c1.5-0.3,2.5,0.8,3,3.4
		c0.2,0.9,0,1.7-0.4,2.4c-0.5,0.7-1.1,1.1-2,1.2c-6.5,0.2-12.2-0.3-17-1.5c-1.5-0.4-2.9-1.2-4.1-2.5c-1.2-1.3-1.9-2.8-2.1-4.4
		c-0.5-4.7-0.5-8.9,0-12.6c-1.5-1-2.2-2-2-3c0.1-0.5,0.5-0.9,1.3-1.3c0.8-0.4,1.2-0.8,1.3-1.3c0.1-0.4,0.3-3,0.6-7.7
		c-3-0.6-4.5-1.7-4.5-3.4c0.1-1.6,1-2.8,2.8-3.7c1.7-0.7,3.5-1.4,5.2-2.1c2-1,4.5-1.9,7.5-2.8c2.6-0.7,5.3-1.4,7.9-2
		c0.3-0.1,0.6-0.1,1-0.1c1.5,0,3.2,0.6,5.1,1.7c0.1,0.2,0.2,0.6,0.4,1.2c0.2,0.6,0.3,1,0.3,1.3C379.7,34.4,379.5,34.7,379.1,35z"/>
</g>
</svg>
